<svg width="161" height="39" viewBox="0 0 161 39" fill="none" xmlns="http://www.w3.org/2000/svg">
<g filter="url(#filter0_d_10_249)">
<path d="M23.4 26H16.65V25.76C16.65 24.66 17.09 24.07 17.97 23.99L18.84 23.93V16.85H10.14V23.87L12.3 24.05C12.42 25.35 11.97 26 10.95 26H4.2V25.76C4.2 24.66 4.64 24.07 5.52 23.99L6.39 23.93V7.58L4.23 7.4C4.17 7.28 4.18 7.01 4.26 6.59C4.44 5.83 4.88 5.45 5.58 5.45H12.33V5.69C12.33 6.79 11.89 7.38 11.01 7.46L10.14 7.52V14.84H18.84V7.58L16.68 7.4C16.56 6.1 17.01 5.45 18.03 5.45H24.78V5.69C24.78 6.79 24.34 7.38 23.46 7.46L22.59 7.52V23.87L24.75 24.05C24.81 24.17 24.8 24.44 24.72 24.86C24.54 25.62 24.1 26 23.4 26ZM41.2988 24.65C41.2988 25.85 40.5188 26.45 38.9588 26.45C37.3988 26.45 36.3888 25.93 35.9288 24.89C34.6688 25.93 33.2788 26.45 31.7588 26.45C30.2388 26.45 29.0388 26.08 28.1588 25.34C27.2988 24.58 26.8688 23.55 26.8688 22.25C26.8688 20.93 27.3788 19.85 28.3988 19.01C29.4187 18.17 31.0288 17.75 33.2288 17.75C34.0888 17.75 34.9088 17.81 35.6888 17.93V16.61C35.6888 15.23 35.4588 14.25 34.9988 13.67C34.5588 13.09 33.9488 12.8 33.1688 12.8C32.3888 12.8 31.7588 13.05 31.2788 13.55C30.8188 14.05 30.5888 14.73 30.5888 15.59C29.7888 15.67 29.1188 15.55 28.5788 15.23C28.0588 14.89 27.7988 14.38 27.7988 13.7C27.7988 12.74 28.2988 11.95 29.2988 11.33C30.2988 10.71 31.5888 10.4 33.1688 10.4C37.2888 10.4 39.3488 12.4 39.3488 16.4V24.41L41.2988 24.65ZM35.6888 20.18C34.9688 19.92 34.2088 19.79 33.4088 19.79C32.6288 19.79 31.9788 19.98 31.4588 20.36C30.9388 20.72 30.6788 21.24 30.6788 21.92C30.6788 23.32 31.3988 24.02 32.8388 24.02C33.8588 24.02 34.8088 23.73 35.6888 23.15V20.18ZM53.4033 10.85H57.6933C57.6933 10.85 57.6933 10.93 57.6933 11.09C57.6933 12.13 57.2533 12.72 56.3733 12.86L56.2533 12.89L51.2733 24.98H51.3033C51.2033 25.2 51.0233 25.62 50.7633 26.24C50.5033 26.86 50.3133 27.29 50.1933 27.53C50.0933 27.79 49.9133 28.19 49.6533 28.73C49.3933 29.27 49.1833 29.66 49.0233 29.9C48.8633 30.16 48.6533 30.49 48.3933 30.89C48.1333 31.29 47.8833 31.58 47.6433 31.76C47.4233 31.96 47.1633 32.17 46.8633 32.39C46.3233 32.79 45.6433 32.99 44.8233 32.99C44.0033 32.99 43.3433 32.78 42.8433 32.36C42.3433 31.94 42.0933 31.42 42.0933 30.8C42.0933 30.2 42.2733 29.71 42.6333 29.33C42.9933 28.97 43.3933 28.79 43.8333 28.79C44.2733 28.79 44.5433 28.81 44.6433 28.85C44.4233 29.91 44.6533 30.44 45.3333 30.44C45.9133 30.44 46.5233 29.81 47.1633 28.55C47.8233 27.31 48.3533 26.04 48.7533 24.74L43.4433 12.98H43.2933L41.6433 12.8C41.5833 12.68 41.5933 12.41 41.6733 11.99C41.8533 11.23 42.2933 10.85 42.9933 10.85H49.2033C49.1433 11.59 49.0533 12.05 48.9333 12.23C48.6333 12.57 48.2833 12.78 47.8833 12.86L47.5533 12.92L50.5833 20.42L53.4633 12.95L52.0533 12.8C51.9333 11.5 52.3833 10.85 53.4033 10.85ZM73.0273 24.65C73.0273 25.85 72.2473 26.45 70.6873 26.45C69.1273 26.45 68.1173 25.93 67.6573 24.89C66.3973 25.93 65.0073 26.45 63.4873 26.45C61.9673 26.45 60.7673 26.08 59.8873 25.34C59.0273 24.58 58.5973 23.55 58.5973 22.25C58.5973 20.93 59.1073 19.85 60.1273 19.01C61.1473 18.17 62.7573 17.75 64.9573 17.75C65.8173 17.75 66.6373 17.81 67.4173 17.93V16.61C67.4173 15.23 67.1873 14.25 66.7273 13.67C66.2873 13.09 65.6773 12.8 64.8973 12.8C64.1173 12.8 63.4873 13.05 63.0073 13.55C62.5473 14.05 62.3173 14.73 62.3173 15.59C61.5173 15.67 60.8473 15.55 60.3073 15.23C59.7873 14.89 59.5273 14.38 59.5273 13.7C59.5273 12.74 60.0273 11.95 61.0273 11.33C62.0273 10.71 63.3173 10.4 64.8973 10.4C69.0173 10.4 71.0773 12.4 71.0773 16.4V24.41L73.0273 24.65ZM67.4173 20.18C66.6973 19.92 65.9373 19.79 65.1373 19.79C64.3573 19.79 63.7073 19.98 63.1873 20.36C62.6673 20.72 62.4073 21.24 62.4073 21.92C62.4073 23.32 63.1273 24.02 64.5673 24.02C65.5873 24.02 66.5373 23.73 67.4173 23.15V20.18Z" fill="#F7CCAC"/>
<path d="M90.0218 26H74.3318C74.0118 25.3 73.8218 24.77 73.7618 24.41L85.1318 7.7L77.8718 7.94L77.6018 10.43C77.4218 11.81 76.6518 12.36 75.2918 12.08V5.45H89.2418C89.7818 5.83 90.0518 6.32 90.0518 6.92L78.8018 23.84L87.4118 23.39L87.7718 20.87C87.8718 20.13 88.1118 19.65 88.4918 19.43C88.8718 19.21 89.3818 19.16 90.0218 19.28V26ZM106.367 24.65C106.367 25.85 105.587 26.45 104.027 26.45C102.467 26.45 101.457 25.93 100.997 24.89C99.7371 25.93 98.3471 26.45 96.8271 26.45C95.3071 26.45 94.1071 26.08 93.2271 25.34C92.3671 24.58 91.9371 23.55 91.9371 22.25C91.9371 20.93 92.4471 19.85 93.4671 19.01C94.4871 18.17 96.0971 17.75 98.2971 17.75C99.1571 17.75 99.9771 17.81 100.757 17.93V16.61C100.757 15.23 100.527 14.25 100.067 13.67C99.6271 13.09 99.0171 12.8 98.2371 12.8C97.4571 12.8 96.8271 13.05 96.3471 13.55C95.8871 14.05 95.6571 14.73 95.6571 15.59C94.8571 15.67 94.1871 15.55 93.6471 15.23C93.1271 14.89 92.8671 14.38 92.8671 13.7C92.8671 12.74 93.3671 11.95 94.3671 11.33C95.3671 10.71 96.6571 10.4 98.2371 10.4C102.357 10.4 104.417 12.4 104.417 16.4V24.41L106.367 24.65ZM100.757 20.18C100.037 19.92 99.2771 19.79 98.4771 19.79C97.6971 19.79 97.0471 19.98 96.5271 20.36C96.0071 20.72 95.7471 21.24 95.7471 21.92C95.7471 23.32 96.4671 24.02 97.9071 24.02C98.9271 24.02 99.8771 23.73 100.757 23.15V20.18ZM124.232 26H117.602V25.76C117.602 24.66 118.042 24.07 118.922 23.99L119.792 23.93V16.55C119.792 15.37 119.552 14.55 119.072 14.09C118.592 13.63 117.822 13.4 116.762 13.4C115.702 13.4 114.632 13.86 113.552 14.78V23.87L115.682 24.05C115.802 25.35 115.352 26 114.332 26H107.642V25.76C107.642 24.66 108.082 24.07 108.962 23.99L109.892 23.93V7.22L108.722 7.1C107.902 7.02 107.532 6.4 107.612 5.24L113.552 4.58V12.23C114.972 11.01 116.442 10.4 117.962 10.4C119.482 10.4 120.772 10.92 121.832 11.96C122.912 12.98 123.452 14.56 123.452 16.7V23.87L125.582 24.05C125.702 25.35 125.252 26 124.232 26ZM132.854 13.04C133.334 12.4 134.014 11.8 134.894 11.24C135.794 10.68 136.564 10.4 137.204 10.4C137.864 10.4 138.414 10.61 138.854 11.03C139.294 11.45 139.514 12.15 139.514 13.13C139.514 14.09 139.184 14.86 138.524 15.44C138.184 15.7 137.614 15.78 136.814 15.68C136.814 15.02 136.754 14.52 136.634 14.18C136.514 13.82 136.384 13.61 136.244 13.55C136.104 13.47 135.914 13.43 135.674 13.43C134.674 13.43 133.774 14.08 132.974 15.38V23.87L135.404 24.05C135.524 25.35 135.074 26 134.054 26H127.124C127.124 26 127.124 25.92 127.124 25.76C127.124 24.66 127.564 24.07 128.444 23.99L129.314 23.93V13.19L127.994 13.04C127.374 12.98 127.064 12.38 127.064 11.24L132.494 10.55L132.764 13.04H132.854ZM154.912 24.65C154.912 25.85 154.132 26.45 152.572 26.45C151.012 26.45 150.002 25.93 149.542 24.89C148.282 25.93 146.892 26.45 145.372 26.45C143.852 26.45 142.652 26.08 141.772 25.34C140.912 24.58 140.482 23.55 140.482 22.25C140.482 20.93 140.992 19.85 142.012 19.01C143.032 18.17 144.642 17.75 146.842 17.75C147.702 17.75 148.522 17.81 149.302 17.93V16.61C149.302 15.23 149.072 14.25 148.612 13.67C148.172 13.09 147.562 12.8 146.782 12.8C146.002 12.8 145.372 13.05 144.892 13.55C144.432 14.05 144.202 14.73 144.202 15.59C143.402 15.67 142.732 15.55 142.192 15.23C141.672 14.89 141.412 14.38 141.412 13.7C141.412 12.74 141.912 11.95 142.912 11.33C143.912 10.71 145.202 10.4 146.782 10.4C150.902 10.4 152.962 12.4 152.962 16.4V24.41L154.912 24.65ZM149.302 20.18C148.582 19.92 147.822 19.79 147.022 19.79C146.242 19.79 145.592 19.98 145.072 20.36C144.552 20.72 144.292 21.24 144.292 21.92C144.292 23.32 145.012 24.02 146.452 24.02C147.472 24.02 148.422 23.73 149.302 23.15V20.18Z" fill="#F7CCAC"/>
</g>
<defs>
<filter id="filter0_d_10_249" x="0.140015" y="0.579956" width="160.772" height="38.41" filterUnits="userSpaceOnUse" color-interpolation-filters="sRGB">
<feFlood flood-opacity="0" result="BackgroundImageFix"/>
<feColorMatrix in="SourceAlpha" type="matrix" values="0 0 0 0 0 0 0 0 0 0 0 0 0 0 0 0 0 0 127 0" result="hardAlpha"/>
<feOffset dx="1" dy="1"/>
<feGaussianBlur stdDeviation="2.5"/>
<feComposite in2="hardAlpha" operator="out"/>
<feColorMatrix type="matrix" values="0 0 0 0 0.525 0 0 0 0 0.525 0 0 0 0 0.525 0 0 0 0.25 0"/>
<feBlend mode="normal" in2="BackgroundImageFix" result="effect1_dropShadow_10_249"/>
<feBlend mode="normal" in="SourceGraphic" in2="effect1_dropShadow_10_249" result="shape"/>
</filter>
</defs>
</svg>
